<?xml version="1.0" standalone="no"?>
<!DOCTYPE svg PUBLIC "-//W3C//DTD SVG 20010904//EN"
 "http://www.w3.org/TR/2001/REC-SVG-20010904/DTD/svg10.dtd">
<svg version="1.0" xmlns="http://www.w3.org/2000/svg"
 width="48" height="48" viewBox="0 0 24 24"
 preserveAspectRatio="xMidYMid meet">
<metadata>
Created by potrace 1.10, written by Peter Selinger 2001-2011
</metadata>
<g transform="translate(0.000000,200.000000) scale(0.100000,-0.100000)"
fill="#000000" stroke="none">
<path d="M846 1979 c9 -10 21 -16 25 -13 13 8 11 14 -3 12 -7 -2 -12 2 -11 8
1 6 -5 11 -13 11 -12 0 -11 -4 2 -18z"/>
<path d="M795 1980 c-6 -9 0 -14 16 -12 4 1 16 -9 28 -22 l21 -23 -52 4 c-45
4 -63 -1 -123 -31 -71 -37 -68 -49 5 -20 23 9 43 14 46 11 3 -3 -21 -15 -53
-26 -89 -33 -106 -43 -58 -35 22 4 51 8 65 8 14 1 52 14 85 30 49 22 69 27
108 22 26 -3 47 -4 47 -2 0 11 -130 104 -135 96z"/>
<path d="M589 1899 l-24 -20 30 17 c39 24 40 24 28 24 -6 0 -21 -9 -34 -21z"/>
<path d="M1015 1910 c-3 -6 1 -7 9 -4 18 7 21 14 7 14 -6 0 -13 -4 -16 -10z"/>
<path d="M1100 1900 c-9 -6 -10 -10 -3 -10 6 0 15 5 18 10 8 12 4 12 -15 0z"/>
<path d="M600 1880 c-9 -6 -10 -10 -3 -10 6 0 15 5 18 10 8 12 4 12 -15 0z"/>
<path d="M825 1871 c-11 -5 -29 -19 -40 -31 -11 -13 -47 -40 -79 -62 -33 -21
-55 -38 -50 -38 29 0 130 53 155 80 25 26 34 31 57 25 37 -9 38 -12 17 -35
-18 -20 -18 -20 26 -20 25 0 51 -6 58 -12 11 -11 11 -9 2 9 -6 12 -16 24 -23
26 -8 3 -6 6 5 6 28 1 11 18 -25 25 -26 5 -30 9 -18 16 12 8 12 10 -5 10 -11
0 -29 2 -40 5 -11 2 -29 0 -40 -4z m105 -61 c0 -5 -8 -10 -17 -10 -15 0 -16 2
-3 10 19 12 20 12 20 0z"/>
<path d="M978 1841 c17 -15 31 -19 54 -14 23 5 34 2 45 -12 19 -26 17 -31 -14
-30 -20 0 -33 -9 -50 -34 -13 -19 -23 -40 -23 -48 0 -20 47 -35 71 -23 22 12
25 2 6 -23 -10 -15 -17 -16 -45 -6 -22 8 -43 8 -70 1 -29 -8 -32 -10 -12 -11
40 -2 91 -37 83 -58 -5 -14 -1 -13 25 6 18 12 34 33 37 47 3 13 7 35 10 49 5
23 4 24 -19 14 -39 -18 -57 -6 -45 30 13 36 34 57 44 41 15 -24 26 -7 23 38
-3 51 -4 51 -83 42 -11 -2 -29 1 -40 5 -18 6 -17 4 3 -14z"/>
<path d="M695 1815 c-16 -8 -47 -14 -68 -15 -52 0 -102 -25 -129 -63 l-23 -32
35 26 c32 24 90 46 90 35 0 -3 -18 -15 -40 -27 -72 -41 -42 -38 43 4 104 51
185 114 92 72z"/>
<path d="M813 1797 c-10 -12 -40 -31 -68 -41 -74 -28 -85 -39 -44 -48 18 -3
40 -2 49 2 12 7 9 10 -10 10 -23 1 -22 2 10 18 19 10 55 32 79 50 34 25 39 32
23 32 -11 0 -29 -10 -39 -23z"/>
<path d="M795 1729 c-36 -38 -34 -44 5 -14 18 14 70 36 70 30 0 -2 -19 -17
-42 -33 -32 -22 -47 -42 -60 -78 l-17 -49 48 55 c27 30 51 53 54 50 2 -3 8
-21 13 -40 l9 -35 44 44 c36 35 40 42 20 36 -13 -4 -32 -14 -41 -23 -21 -18
-21 -17 -8 26 8 30 7 33 -8 27 -11 -4 -9 2 7 19 l24 26 -39 0 c-34 0 -46 -6
-79 -41z"/>
<path d="M580 1710 c-19 -11 -42 -20 -50 -20 -8 -1 -28 -7 -45 -16 -30 -14
-30 -14 19 -9 27 3 56 10 65 16 9 6 -4 -7 -29 -30 -42 -38 -47 -57 -7 -27 10
8 63 22 118 32 54 9 97 20 93 23 -6 6 -12 7 -84 10 -40 1 -43 3 -27 15 40 31
1 35 -53 6z m24 -40 c-6 -6 -10 -3 -10 10 0 13 4 16 10 10 7 -7 7 -13 0 -20z"/>
<path d="M936 1722 c-3 -5 1 -9 9 -9 8 0 12 4 9 9 -3 4 -7 8 -9 8 -2 0 -6 -4
-9 -8z"/>
<path d="M1335 1669 c-4 -5 -4 -21 -1 -33 4 -15 0 -28 -9 -36 -8 -7 -15 -25
-15 -40 0 -15 -7 -33 -15 -40 -18 -15 -29 -72 -20 -107 4 -16 40 -60 86 -104
68 -66 79 -81 79 -110 0 -48 -12 -61 -58 -63 -34 0 -47 6 -89 45 -51 48 -54
50 -140 69 -32 7 -66 24 -92 47 -48 40 -52 36 -14 -17 34 -46 77 -76 123 -84
19 -3 53 -17 75 -29 34 -19 45 -35 76 -106 19 -46 43 -89 52 -96 21 -15 22
-39 1 -59 -29 -29 -53 -19 -74 28 -16 38 -25 47 -59 56 l-40 10 19 43 c19 40
28 95 12 71 -4 -6 -35 -25 -69 -43 l-62 -31 -25 43 c-43 73 -76 156 -76 191 0
18 7 53 15 77 15 41 14 47 -6 101 -12 32 -24 58 -27 58 -2 0 -2 -23 1 -50 5
-38 1 -64 -15 -106 l-21 -55 23 -100 24 -99 -39 -56 c-41 -59 -54 -114 -51
-205 l2 -47 -34 16 c-33 16 -35 16 -53 -7 -36 -45 -26 -57 43 -51 l63 5 10 95
c11 93 33 150 59 150 6 0 28 -11 49 -25 26 -18 37 -33 37 -51 0 -33 -21 -39
-60 -19 -29 15 -32 20 -26 48 l6 32 -15 -25 c-22 -38 -18 -55 21 -86 28 -23
32 -30 21 -39 -28 -20 -36 -49 -21 -75 l13 -25 1 32 c0 17 4 35 10 38 6 3 7
-1 4 -9 -3 -9 -3 -24 1 -33 6 -16 9 -14 21 10 8 15 19 27 25 27 6 0 6 -6 0
-18 -5 -10 -6 -24 -2 -31 7 -10 16 -8 45 11 41 26 44 44 16 90 -11 18 -20 36
-20 39 0 3 20 20 45 38 57 41 98 37 122 -13 8 -18 27 -40 42 -49 58 -36 57
-34 31 -55 -18 -14 -22 -24 -16 -45 8 -34 26 -35 26 -3 0 14 5 28 11 32 7 4 9
0 5 -13 -4 -13 0 -26 13 -37 17 -16 18 -16 14 6 -5 24 28 73 41 61 8 -8 8 10
0 31 -3 9 -11 16 -16 16 -6 0 -8 -7 -5 -14 4 -11 1 -13 -10 -9 -11 4 -14 2 -9
-5 4 -7 2 -12 -4 -12 -7 0 -10 7 -6 15 3 8 0 15 -6 15 -7 0 -6 5 2 15 15 18
-1 20 -19 3 -11 -11 -12 -9 -3 7 6 11 18 29 26 40 13 16 15 17 10 3 -4 -13 -1
-18 12 -18 15 0 16 -2 5 -9 -9 -6 -10 -11 -2 -15 6 -4 16 -4 22 -1 5 4 19 -1
30 -11 18 -16 18 -19 3 -35 -15 -16 -14 -17 8 -12 13 3 18 1 12 -4 -6 -4 -16
-17 -23 -28 -8 -13 -11 -14 -7 -3 7 24 -5 30 -26 11 -45 -40 -2 -65 48 -27 54
42 48 71 -31 146 -69 65 -98 105 -109 151 -6 25 -4 27 23 27 43 0 80 20 97 51
32 62 6 117 -84 178 -72 49 -102 84 -102 122 0 40 17 79 37 85 53 17 63 27 62
63 -1 30 -2 32 -8 12 -3 -13 -18 -31 -31 -39 l-25 -16 23 25 c25 29 28 51 8
69 -8 6 -12 18 -9 26 6 16 -3 19 -12 3z m25 -553 c0 -2 -7 -7 -16 -10 -8 -3
-12 -2 -9 4 6 10 25 14 25 6z m-293 -59 c13 -10 20 -23 17 -28 -7 -12 76 -2
91 11 20 17 10 -55 -11 -76 -24 -24 -53 -16 -55 14 0 9 -3 12 -5 5 -3 -7 0
-21 6 -33 8 -15 8 -25 0 -38 -11 -16 -11 -16 -6 1 3 10 1 28 -6 40 -7 12 -13
28 -14 35 -3 18 -14 29 -14 14 0 -7 -5 -12 -11 -12 -6 0 -9 6 -6 14 3 8 -1 17
-9 20 -9 3 -12 1 -9 -4 3 -6 1 -10 -4 -10 -6 0 -11 7 -11 15 0 12 -4 13 -19 5
-25 -13 -31 -13 -31 1 0 5 4 8 8 5 10 -6 52 30 52 45 0 6 -4 7 -10 4 -11 -7
-14 8 -3 19 4 3 11 -1 17 -11 5 -10 20 -26 33 -36z m38 -207 c3 -11 10 -20 15
-20 4 0 11 -8 14 -17 4 -10 4 -14 0 -10 -4 4 -13 -1 -21 -11 -11 -15 -12 -15
-7 0 6 18 -28 34 -47 22 -15 -9 0 38 15 48 18 12 24 9 31 -12z m-248 -72 c-3
-8 -6 -5 -6 6 -1 11 2 17 5 13 3 -3 4 -12 1 -19z"/>
<path d="M1025 1050 c-3 -5 -1 -10 4 -10 6 0 11 5 11 10 0 6 -2 10 -4 10 -3 0
-8 -4 -11 -10z"/>
<path d="M1050 1046 c0 -9 5 -16 10 -16 6 0 10 4 10 9 0 6 -4 13 -10 16 -5 3
-10 -1 -10 -9z"/>
<path d="M438 1643 c5 -21 7 -23 10 -9 2 10 0 22 -6 28 -6 6 -7 0 -4 -19z"/>
<path d="M1295 1660 c3 -5 8 -10 11 -10 2 0 4 5 4 10 0 6 -5 10 -11 10 -5 0
-7 -4 -4 -10z"/>
<path d="M730 1639 c-68 -55 -124 -118 -147 -164 l-25 -50 47 45 c31 29 45 38
41 25 -19 -53 -23 -108 -11 -166 15 -71 36 -103 28 -42 -5 39 8 151 23 187 6
15 4 18 -9 13 -11 -4 -14 -2 -10 9 3 8 8 12 11 10 3 -3 12 0 20 7 13 10 14 9
8 -1 -12 -21 -17 -124 -6 -117 6 3 10 15 10 25 0 10 29 45 65 77 56 51 65 63
70 103 l6 45 -20 -36 c-11 -20 -36 -46 -56 -57 -38 -23 -41 -22 -23 11 10 19
6 18 -27 -7 -21 -16 -35 -23 -30 -15 5 8 18 30 30 49 20 32 37 70 32 70 -1 -1
-13 -10 -27 -21z m-55 -111 c6 -4 2 -8 -7 -8 -10 0 -18 7 -18 17 0 9 3 12 8 7
4 -5 12 -12 17 -16z m65 -22 c0 -7 -7 -19 -15 -26 -12 -10 -15 -9 -15 4 0 11
5 14 12 10 8 -5 9 -2 5 9 -3 10 -2 17 3 17 6 0 10 -6 10 -14z"/>
<path d="M645 1630 c-58 -23 -58 -23 -50 -10 12 19 -12 10 -53 -20 -38 -27
-62 -58 -62 -77 1 -4 9 2 18 13 10 12 34 29 53 39 33 17 34 17 18 -1 -24 -27
-54 -92 -69 -147 -18 -68 -8 -66 20 5 18 45 43 79 101 139 43 44 77 79 76 79
-1 -1 -24 -10 -52 -20z"/>
<path d="M887 1576 c-19 -42 -37 -61 -79 -90 -57 -37 -95 -73 -87 -81 3 -2 22
7 42 21 40 27 44 23 22 -16 -26 -45 -16 -43 41 9 53 49 74 61 74 42 0 -11 -39
-61 -65 -83 -30 -26 -10 -22 36 7 44 29 96 102 104 149 3 17 2 45 -3 61 l-9
30 -7 -31 c-4 -17 -19 -42 -33 -55 l-25 -24 6 30 c22 102 18 108 -17 31z m63
-62 c0 -8 -19 -13 -24 -6 -3 5 1 9 9 9 8 0 15 -2 15 -3z m-22 -40 c-4 -3 -12
5 -18 18 -12 22 -12 22 6 6 10 -10 15 -20 12 -24z"/>
<path d="M1105 1621 c-3 -5 -2 -12 3 -15 5 -3 9 1 9 9 0 17 -3 19 -12 6z"/>
<path d="M1111 1574 c0 -11 3 -14 6 -6 3 7 2 16 -1 19 -3 4 -6 -2 -5 -13z"/>
<path d="M1078 1543 c7 -3 16 -2 19 1 4 3 -2 6 -13 5 -11 0 -14 -3 -6 -6z"/>
<path d="M1017 1509 c4 -13 8 -18 11 -10 2 7 -1 18 -6 23 -8 8 -9 4 -5 -13z"/>
<path d="M1327 1469 c4 -13 8 -18 11 -10 2 7 -1 18 -6 23 -8 8 -9 4 -5 -13z"/>
<path d="M591 1437 c-16 -19 -27 -50 -32 -85 -4 -30 -14 -59 -21 -63 -8 -5 -9
-9 -2 -9 20 0 35 27 60 107 13 42 23 78 21 79 -1 1 -13 -12 -26 -29z"/>
<path d="M1331 1426 c-9 -10 -9 -16 -1 -21 6 -4 14 -4 17 -1 4 3 1 6 -6 6 -7
0 -9 5 -6 10 4 6 11 7 17 4 7 -4 8 -2 4 4 -9 15 -11 15 -25 -2z"/>
<path d="M931 1397 c-13 -21 -12 -21 5 -5 10 10 16 20 13 22 -3 3 -11 -5 -18
-17z"/>
<path d="M865 1353 c-31 -32 -45 -63 -46 -101 0 -24 -1 -25 -9 -7 -5 11 -9 39
-9 62 -1 62 -19 61 -26 -1 -7 -57 1 -116 16 -116 5 0 8 3 7 8 -3 7 5 12 22 12
6 0 8 -11 4 -26 -5 -19 -4 -25 5 -20 13 9 13 9 1 -32 -8 -30 -7 -33 8 -27 9 3
13 3 9 -1 -4 -4 1 -16 10 -26 13 -15 14 -21 4 -31 -10 -9 -11 -9 -6 5 4 11 -1
21 -17 29 -13 7 -27 12 -31 11 -5 -1 -6 2 -2 8 3 5 -3 10 -14 10 -11 0 -23 5
-26 11 -4 6 -13 8 -21 5 -9 -3 -11 0 -7 11 5 13 3 14 -15 4 -12 -7 -22 -8 -22
-4 0 4 -9 -3 -19 -16 l-19 -25 4 32 c2 17 -1 34 -6 37 -6 3 -10 11 -10 18 0 6
6 3 13 -8 10 -12 16 -14 21 -7 4 7 -6 29 -23 49 -16 21 -36 61 -45 88 l-15 50
0 -66 c-1 -50 5 -80 24 -123 l25 -56 -31 -19 -30 -19 33 -5 c18 -3 44 -8 58
-13 l25 -7 -25 20 -24 21 43 7 c53 9 119 -17 127 -50 5 -19 -14 -130 -31 -180
-5 -14 2 -10 22 12 15 18 43 70 62 117 l33 84 -25 28 c-45 49 -48 186 -6 246
26 36 18 36 -16 1z"/>
<path d="M701 1317 c-1 -61 8 -87 42 -124 44 -49 38 -17 -34 162 -5 14 -8 1
-8 -38z"/>
<path d="M1280 1331 c0 -6 4 -13 10 -16 6 -3 7 1 4 9 -7 18 -14 21 -14 7z"/>
<path d="M480 1301 c0 -6 4 -13 10 -16 6 -3 7 1 4 9 -7 18 -14 21 -14 7z"/>
<path d="M1265 1269 c-4 -6 -5 -12 -2 -15 2 -3 7 2 10 11 7 17 1 20 -8 4z"/>
<path d="M685 1207 c14 -22 15 -30 5 -42 -7 -9 -10 -18 -6 -22 3 -3 6 0 6 8 0
11 2 11 10 -1 6 -10 10 -11 10 -2 0 6 9 12 20 12 11 0 20 -5 20 -11 0 -8 6 -7
16 2 15 12 16 11 10 -7 -4 -15 -2 -21 9 -21 8 0 13 3 10 5 -3 3 1 12 8 20 10
13 9 14 -2 7 -11 -6 -13 -4 -8 9 6 14 4 15 -15 5 -17 -9 -23 -9 -26 0 -2 6 -8
9 -13 5 -5 -3 -9 -1 -9 5 0 5 -14 20 -31 32 l-32 22 18 -26z"/>
<path d="M551 1107 c-13 -37 -20 -78 -17 -90 3 -12 24 -43 47 -69 35 -41 46
-48 77 -48 20 0 44 5 52 10 11 7 7 10 -19 10 -28 0 -44 9 -83 50 -52 54 -59
84 -37 148 6 17 9 37 7 44 -3 7 -15 -18 -27 -55z"/>
<path d="M1150 1160 c-8 -5 -10 -10 -5 -10 6 0 17 5 25 10 8 5 11 10 5 10 -5
0 -17 -5 -25 -10z"/>
<path d="M1090 1150 c0 -6 7 -10 15 -10 8 0 15 2 15 4 0 2 -7 6 -15 10 -8 3
-15 1 -15 -4z"/>
<path d="M1190 1150 c-9 -6 -10 -10 -3 -10 6 0 15 5 18 10 8 12 4 12 -15 0z"/>
<path d="M1087 1109 c8 -10 23 -14 43 -11 38 5 40 15 2 11 -15 -2 -34 1 -42 6
-12 7 -13 6 -3 -6z"/>
<path d="M1424 1036 c-10 -8 -17 -16 -14 -19 3 -2 14 4 24 14 23 22 18 25 -10
5z"/>
<path d="M675 1005 c21 -17 70 -17 70 0 0 6 -20 11 -45 13 -42 2 -44 1 -25
-13z"/>
<path d="M494 982 c18 -21 29 -23 27 -5 -1 4 -4 8 -8 8 -5 0 -15 4 -23 9 -9 6
-7 1 4 -12z"/>
<path d="M780 980 c-9 -6 -10 -10 -3 -10 6 0 15 5 18 10 8 12 4 12 -15 0z"/>
<path d="M657 964 c6 -17 46 -29 68 -20 22 8 19 28 -4 21 -10 -3 -30 -1 -44 4
-21 8 -25 7 -20 -5z"/>
<path d="M1485 951 c-3 -5 -1 -12 5 -16 6 -4 7 -11 4 -17 -4 -7 -2 -8 5 -4 8
6 9 12 2 20 -6 7 -8 16 -4 19 3 4 4 7 0 7 -3 0 -8 -4 -12 -9z"/>
<path d="M1341 934 c0 -11 3 -14 6 -6 3 7 2 16 -1 19 -3 4 -6 -2 -5 -13z"/>
<path d="M1184 860 c0 -13 4 -16 10 -10 7 7 7 13 0 20 -6 6 -10 3 -10 -10z"/>
<path d="M1464 855 c8 -8 18 -15 22 -15 3 0 1 7 -6 15 -7 8 -17 15 -22 15 -5
0 -3 -7 6 -15z"/>
<path d="M1283 825 c0 -7 6 -11 14 -8 7 3 13 6 13 8 0 2 -6 5 -13 8 -8 3 -14
-1 -14 -8z"/>
<path d="M782 815 c-28 -12 -33 -19 -30 -42 4 -33 28 -44 28 -12 0 13 10 33
22 46 25 27 24 27 -20 8z"/>
<path d="M722 808 c-14 -14 -16 -68 -2 -68 6 0 10 13 10 28 0 15 5 33 12 40 7
7 8 12 2 12 -5 0 -15 -5 -22 -12z"/>
<path d="M645 789 c-4 -6 -5 -12 -2 -15 2 -3 7 2 10 11 7 17 1 20 -8 4z"/>
<path d="M1189 778 c-5 -18 -6 -38 -1 -34 7 8 12 36 6 36 -2 0 -4 -1 -5 -2z"/>
<path d="M1597 715 c3 -8 9 -12 14 -9 12 7 11 11 -5 17 -10 4 -13 1 -9 -8z"/>
<path d="M97 709 c7 -7 15 -10 18 -7 3 3 -2 9 -12 12 -14 6 -15 5 -6 -5z"/>
<path d="M385 710 c3 -5 8 -10 11 -10 2 0 4 5 4 10 0 6 -5 10 -11 10 -5 0 -7
-4 -4 -10z"/>
<path d="M608 713 c7 -3 16 -2 19 1 4 3 -2 6 -13 5 -11 0 -14 -3 -6 -6z"/>
<path d="M338 703 c7 -3 16 -2 19 1 4 3 -2 6 -13 5 -11 0 -14 -3 -6 -6z"/>
<path d="M780 701 c0 -6 4 -13 10 -16 6 -3 7 1 4 9 -7 18 -14 21 -14 7z"/>
<path d="M80 666 c0 -8 10 -16 23 -18 21 -3 22 -7 25 -138 3 -156 -1 -180 -28
-180 -11 0 -20 -7 -20 -15 0 -12 17 -15 91 -15 68 0 90 3 87 13 -3 6 -14 13
-26 15 -12 2 -22 11 -23 20 0 9 -2 43 -4 75 l-4 57 32 0 c51 0 77 -11 77 -31
0 -11 7 -19 15 -19 12 0 15 13 15 60 0 47 -3 60 -15 60 -8 0 -15 -9 -15 -20 0
-11 -6 -20 -12 -21 -7 0 -31 -2 -54 -5 l-40 -5 0 75 1 76 45 0 c53 0 62 -5 83
-45 12 -24 17 -27 22 -14 3 10 5 32 3 50 l-4 34 -137 3 c-115 2 -137 0 -137
-12z m91 -22 c2 3 2 -18 1 -45 -3 -30 -8 -47 -14 -43 -6 4 -8 24 -5 44 3 22 0
44 -7 51 -9 11 -8 11 5 1 9 -6 18 -10 20 -8z m9 -114 c0 -5 -4 -10 -10 -10 -5
0 -10 5 -10 10 0 6 5 10 10 10 6 0 10 -4 10 -10z m10 -46 c0 -14 -4 -23 -9
-19 -5 3 -12 -7 -14 -22 -3 -21 -4 -17 -6 13 0 22 2 44 6 47 13 14 23 6 23
-19z m-19 -103 c-9 -6 -10 -11 -2 -15 6 -4 11 -15 11 -24 0 -12 -4 -9 -13 8
-16 30 -10 67 7 50 8 -8 7 -13 -3 -19z m-20 -54 c-10 -9 -11 -8 -5 6 3 10 9
15 12 12 3 -3 0 -11 -7 -18z"/>
<path d="M380 666 c0 -7 12 -16 28 -19 18 -4 36 -21 55 -51 16 -26 34 -43 39
-39 7 3 8 1 4 -5 -4 -6 0 -25 9 -42 16 -31 16 -31 -36 -101 -37 -51 -60 -72
-80 -76 -16 -3 -29 -12 -29 -19 0 -11 18 -14 75 -14 48 0 75 4 75 11 0 6 -9
13 -20 16 -28 7 -25 21 14 82 l33 54 36 -64 c34 -61 35 -64 17 -71 -46 -17
-17 -28 76 -28 71 0 95 3 92 12 -3 7 -15 15 -29 18 -16 4 -42 34 -83 98 l-58
92 26 38 c35 51 76 89 100 94 11 1 21 9 24 16 3 9 -16 12 -72 12 -48 0 -76 -4
-76 -11 0 -6 9 -13 20 -16 26 -7 25 -8 -9 -67 l-29 -48 -26 44 c-27 46 -32 68
-17 68 5 0 11 7 15 15 4 13 -9 15 -84 15 -70 0 -90 -3 -90 -14z m132 -75 c-4
-10 -7 -11 -10 -3 -2 7 -7 10 -11 8 -4 -3 -6 7 -5 22 2 39 3 40 18 13 8 -14
11 -32 8 -40z m22 -17 c3 -8 2 -12 -4 -9 -6 3 -10 10 -10 16 0 14 7 11 14 -7z
m26 -54 c1 14 20 -21 26 -48 3 -17 61 -82 68 -76 3 2 4 1 1 -3 -3 -3 2 -17 10
-29 9 -14 11 -25 5 -29 -6 -3 -10 2 -11 12 0 14 -2 14 -9 -4 -5 -13 -12 -23
-14 -23 -3 0 -3 7 0 15 4 8 3 23 -2 32 -4 10 -8 20 -8 23 -3 17 -34 49 -41 42
-5 -4 -5 -2 -2 4 4 7 0 17 -8 24 -7 6 -11 19 -8 28 3 9 3 14 -2 10 -10 -9 -34
21 -34 42 0 9 6 4 14 -10 9 -16 15 -19 15 -10z"/>
<path d="M828 660 c-29 -16 -35 -24 -31 -41 4 -15 8 -17 14 -8 14 23 18 5 5
-20 l-13 -24 -7 27 c-9 35 -16 33 -45 -11 -20 -32 -23 -45 -19 -104 4 -53 11
-74 33 -103 36 -48 89 -74 151 -77 146 -6 245 137 187 268 -21 45 -56 83 -96
101 -42 18 -136 14 -179 -8z m144 -12 c44 -37 58 -74 58 -158 0 -64 4 -85 16
-94 14 -11 14 -13 -2 -27 -16 -12 -17 -12 -11 4 10 28 -6 20 -36 -18 -33 -41
-79 -47 -119 -16 -13 11 -31 19 -39 19 -40 -3 -51 2 -46 21 3 13 1 18 -8 14
-10 -3 -12 2 -8 19 3 16 2 19 -5 10 -13 -18 -22 17 -22 83 1 46 2 48 15 31 15
-19 15 -19 15 1 0 12 -5 23 -11 25 -7 2 -4 10 7 18 16 14 17 13 11 -2 -3 -10
-2 -18 2 -18 5 0 8 -34 7 -75 -2 -66 0 -78 21 -102 l24 -28 -6 30 c-4 17 -9
61 -12 98 -6 74 14 149 45 167 24 14 85 12 104 -2z m58 -18 c0 -5 -2 -10 -4
-10 -3 0 -8 5 -11 10 -3 6 -1 10 4 10 6 0 11 -4 11 -10z m42 -42 c22 -33 27
-86 16 -140 -16 -80 -35 -61 -40 40 -3 48 -8 95 -12 105 -12 26 19 22 36 -5z"/>
<path d="M922 465 c0 -16 2 -22 5 -12 2 9 2 23 0 30 -3 6 -5 -1 -5 -18z"/>
<path d="M762 460 c0 -14 2 -19 5 -12 2 6 2 18 0 25 -3 6 -5 1 -5 -13z"/>
<path d="M1055 570 c-3 -5 1 -10 10 -10 9 0 13 5 10 10 -3 6 -8 10 -10 10 -2
0 -7 -4 -10 -10z"/>
<path d="M1160 665 c0 -8 10 -15 23 -17 21 -3 22 -7 25 -128 4 -159 -1 -186
-34 -194 -48 -12 -14 -24 71 -24 91 0 114 9 65 27 -29 10 -30 12 -30 75 0 51
3 66 14 66 21 0 41 -23 65 -73 27 -55 59 -90 78 -83 8 3 11 1 8 -4 -4 -6 10
-10 34 -10 23 0 41 3 41 6 0 3 -14 17 -30 31 -17 13 -46 53 -65 87 -37 66 -42
82 -24 71 14 -9 46 30 54 66 10 45 -13 86 -58 104 -51 20 -237 20 -237 0z
m275 -61 c8 -19 12 -41 9 -49 -13 -33 -38 -8 -48 48 -10 56 -25 45 -20 -15 6
-63 -13 -92 -63 -103 l-33 -7 0 88 0 87 45 -5 c24 -3 42 -2 39 3 -2 4 9 3 26
-2 20 -8 35 -23 45 -45z m-174 -76 c0 -68 2 -143 4 -168 2 -34 1 -39 -5 -20
l-8 25 -7 -22 c-15 -49 -20 -17 -20 142 0 150 2 165 18 165 15 0 17 -13 18
-122z m159 -2 c0 -3 -4 -8 -10 -11 -5 -3 -10 -1 -10 4 0 6 5 11 10 11 6 0 10
-2 10 -4z m-64 -57 c4 -8 9 -7 15 2 7 12 9 11 9 -1 0 -8 9 -26 20 -40 11 -14
20 -31 20 -38 0 -7 12 -24 28 -37 15 -13 21 -25 15 -25 -7 0 -13 6 -13 13 0 8
-3 8 -9 -2 -7 -11 -12 -9 -27 9 -11 12 -25 28 -31 35 -17 17 -17 33 -1 17 19
-19 33 -14 15 6 -10 10 -17 25 -18 33 0 8 -4 5 -8 -6 -8 -19 -8 -19 -16 5 -4
14 -13 28 -19 32 -8 6 -8 8 1 8 6 0 15 -5 19 -11z"/>
<path d="M1414 582 c1 -24 18 -32 24 -10 3 9 1 9 -6 -1 -8 -12 -11 -10 -15 10
-4 22 -4 22 -3 1z"/>
<path d="M1643 661 c-17 -11 -34 -17 -37 -14 -3 4 -6 1 -6 -6 0 -6 -12 -23
-26 -36 -14 -13 -23 -29 -19 -34 3 -6 2 -11 -3 -11 -18 0 -23 -84 -8 -129 32
-90 87 -130 178 -131 63 0 99 12 142 50 42 37 56 72 56 143 0 52 -5 70 -27
105 -15 23 -33 42 -40 42 -7 0 -13 4 -13 8 0 34 -146 43 -197 13z m142 -9 c-3
-3 7 -21 22 -40 23 -31 26 -44 27 -123 1 -61 5 -90 14 -94 6 -2 12 -10 12 -16
0 -9 -4 -8 -14 0 -11 10 -20 5 -41 -24 -23 -29 -34 -35 -64 -35 -74 0 -121 69
-120 175 1 75 8 97 39 135 22 27 30 30 78 29 29 -1 50 -4 47 -7z m52 -43 c1
-19 1 -20 -4 -4 -3 11 -10 24 -17 28 -7 6 -6 7 4 4 8 -2 16 -14 17 -28z m-217
-8 c-6 -12 -15 -21 -21 -21 -5 0 -7 -10 -5 -22 14 -68 16 -109 5 -102 -8 4 -9
-3 -4 -25 8 -35 -8 -43 -25 -11 -8 15 -7 26 6 45 9 14 14 28 10 32 -3 3 -6 0
-7 -8 -1 -22 -17 22 -18 49 -1 15 3 21 11 16 7 -5 8 -3 4 5 -5 7 3 24 20 41
32 32 41 32 24 1z m280 -86 c0 -56 -11 -115 -21 -115 -5 0 -9 8 -9 18 0 15 -2
15 -10 2 -8 -11 -10 2 -7 45 3 33 1 70 -4 81 -4 12 -5 32 -2 45 6 22 6 22 30
-7 15 -20 23 -42 23 -69z m-343 -47 c-3 -7 -5 -2 -5 12 0 14 2 19 5 13 2 -7 2
-19 0 -25z m60 -62 c-3 -8 1 -20 9 -26 8 -7 14 -20 14 -29 -1 -13 -4 -12 -19
6 -10 12 -22 19 -26 15 -4 -4 -1 5 6 21 13 28 26 38 16 13z"/>
<path d="M1745 610 c-3 -5 -1 -10 4 -10 6 0 11 5 11 10 0 6 -2 10 -4 10 -3 0
-8 -4 -11 -10z"/>
<path d="M1665 559 c-4 -6 -5 -12 -2 -15 2 -3 7 2 10 11 7 17 1 20 -8 4z"/>
<path d="M1755 390 c4 -6 11 -8 16 -5 14 9 11 15 -7 15 -8 0 -12 -5 -9 -10z"/>
<path d="M1850 570 c0 -5 5 -10 10 -10 6 0 10 5 10 10 0 6 -4 10 -10 10 -5 0
-10 -4 -10 -10z"/>
<path d="M569 633 c-13 -16 -12 -17 4 -4 16 13 21 21 13 21 -2 0 -10 -8 -17
-17z"/>
<path d="M674 589 c-8 -14 14 -19 25 -6 8 10 7 14 -5 14 -8 0 -17 -4 -20 -8z"/>
<path d="M436 577 c3 -10 9 -15 12 -12 3 3 0 11 -7 18 -10 9 -11 8 -5 -6z"/>
<path d="M1951 544 c0 -11 3 -14 6 -6 3 7 2 16 -1 19 -3 4 -6 -2 -5 -13z"/>
<path d="M370 529 c0 -5 5 -7 10 -4 6 3 10 8 10 11 0 2 -4 4 -10 4 -5 0 -10
-5 -10 -11z"/>
<path d="M1470 490 c0 -5 5 -10 11 -10 5 0 7 5 4 10 -3 6 -8 10 -11 10 -2 0
-4 -4 -4 -10z"/>
<path d="M486 473 c-6 -14 -5 -15 5 -6 7 7 10 15 7 18 -3 3 -9 -2 -12 -12z"/>
<path d="M686 467 c3 -10 9 -15 12 -12 3 3 0 11 -7 18 -10 9 -11 8 -5 -6z"/>
<path d="M410 460 c0 -5 5 -10 10 -10 6 0 10 5 10 10 0 6 -4 10 -10 10 -5 0
-10 -4 -10 -10z"/>
<path d="M393 425 c0 -8 4 -12 9 -9 5 3 6 10 3 15 -9 13 -12 11 -12 -6z"/>
<path d="M278 373 c7 -3 16 -2 19 1 4 3 -2 6 -13 5 -11 0 -14 -3 -6 -6z"/>
<path d="M394 371 c4 -5 1 -12 -4 -14 -6 -3 -5 -4 2 -3 15 3 23 26 8 26 -6 0
-9 -4 -6 -9z"/>
<path d="M546 367 c3 -10 9 -15 12 -12 3 3 0 11 -7 18 -10 9 -11 8 -5 -6z"/>
<path d="M1911 314 c0 -11 3 -14 6 -6 3 7 2 16 -1 19 -3 4 -6 -2 -5 -13z"/>
<path d="M561 283 c7 -12 15 -20 18 -17 3 2 -3 12 -13 22 -17 16 -18 16 -5 -5z"/>
<path d="M525 280 c-3 -5 -1 -10 4 -10 6 0 11 5 11 10 0 6 -2 10 -4 10 -3 0
-8 -4 -11 -10z"/>
<path d="M798 273 c7 -3 16 -2 19 1 4 3 -2 6 -13 5 -11 0 -14 -3 -6 -6z"/>
<path d="M378 263 c7 -3 16 -2 19 1 4 3 -2 6 -13 5 -11 0 -14 -3 -6 -6z"/>
<path d="M488 263 c7 -3 16 -2 19 1 4 3 -2 6 -13 5 -11 0 -14 -3 -6 -6z"/>
<path d="M752 256 c7 -8 15 -12 17 -11 5 6 -10 25 -20 25 -5 0 -4 -6 3 -14z"/>
<path d="M248 253 c6 -2 18 -2 25 0 6 3 1 5 -13 5 -14 0 -19 -2 -12 -5z"/>
<path d="M310 240 c-6 -11 -8 -20 -6 -20 3 0 10 9 16 20 6 11 8 20 6 20 -3 0
-10 -9 -16 -20z"/>
<path d="M783 240 c3 -10 1 -21 -4 -24 -5 -2 -4 -3 3 -2 7 2 12 11 10 21 -2
11 1 14 9 9 8 -4 10 -3 5 4 -12 19 -29 14 -23 -8z"/>
<path d="M1330 248 c0 -9 7 -19 16 -22 15 -6 15 -4 3 11 -7 10 -15 20 -16 22
-2 2 -3 -3 -3 -11z"/>
<path d="M1470 250 c0 -5 5 -10 10 -10 6 0 10 5 10 10 0 6 -4 10 -10 10 -5 0
-10 -4 -10 -10z"/>
<path d="M277 236 c-17 -13 -17 -14 0 -20 10 -4 14 -4 10 0 -4 4 -2 13 4 21
14 17 9 16 -14 -1z"/>
<path d="M387 235 c-4 -8 -3 -16 1 -19 4 -3 9 4 9 15 2 23 -3 25 -10 4z"/>
<path d="M560 247 c0 -2 6 -10 14 -16 11 -9 16 -9 22 1 4 7 4 10 -1 6 -4 -4
-14 -3 -22 3 -7 6 -13 9 -13 6z"/>
<path d="M898 243 c6 -2 18 -2 25 0 6 3 1 5 -13 5 -14 0 -19 -2 -12 -5z"/>
<path d="M1408 243 c6 -2 18 -2 25 0 6 3 1 5 -13 5 -14 0 -19 -2 -12 -5z"/>
<path d="M680 236 c0 -2 8 -10 18 -17 15 -13 16 -12 3 4 -13 16 -21 21 -21 13z"/>
<path d="M1380 230 c8 -5 20 -10 25 -10 6 0 3 5 -5 10 -8 5 -19 10 -25 10 -5
0 -3 -5 5 -10z"/>
<path d="M1519 223 c-12 -16 -12 -17 2 -6 9 7 20 9 24 5 5 -4 5 -1 1 6 -9 16
-11 15 -27 -5z"/>
<path d="M101 174 c-24 -64 -24 -64 -12 -64 5 0 11 9 14 20 3 12 14 20 27 20
13 0 24 -8 27 -20 5 -17 23 -29 23 -15 0 15 -43 115 -49 115 -5 0 -18 -25 -30
-56z m42 6 c4 -15 0 -20 -13 -20 -13 0 -17 5 -13 20 3 11 9 20 13 20 4 0 10
-9 13 -20z"/>
<path d="M510 169 c0 -34 4 -58 9 -54 5 3 8 18 7 33 -3 25 8 41 27 42 4 0 7
-18 7 -40 0 -22 5 -40 11 -40 6 0 9 17 7 43 -3 39 -5 42 -31 42 -21 -1 -26 3
-21 17 3 10 1 18 -5 18 -7 0 -11 -24 -11 -61z"/>
<path d="M620 220 c0 -5 5 -10 11 -10 5 0 7 5 4 10 -3 6 -8 10 -11 10 -2 0 -4
-4 -4 -10z"/>
<path d="M970 220 c0 -5 5 -10 10 -10 6 0 10 5 10 10 0 6 -4 10 -10 10 -5 0
-10 -4 -10 -10z"/>
<path d="M1620 220 c0 -5 5 -10 10 -10 6 0 10 5 10 10 0 6 -4 10 -10 10 -5 0
-10 -4 -10 -10z"/>
<path d="M1681 175 c-1 -57 0 -61 23 -63 31 -2 48 19 44 55 -2 22 -8 28 -28
28 -16 0 -27 7 -32 20 -3 11 -6 -7 -7 -40z m53 -28 c-10 -27 -44 -21 -44 7 0
13 6 26 13 29 18 7 39 -17 31 -36z"/>
<path d="M1790 170 c0 -33 4 -60 10 -60 6 0 10 27 10 60 0 33 -4 60 -10 60 -6
0 -10 -27 -10 -60z"/>
<path d="M429 208 c-3 -38 4 -84 14 -90 17 -11 37 -10 37 2 0 6 -7 10 -15 10
-10 0 -15 10 -15 31 0 16 4 28 9 24 5 -3 12 -1 16 5 3 5 -1 10 -9 10 -9 0 -16
5 -16 10 0 15 -20 12 -21 -2z"/>
<path d="M1300 210 c-9 -6 -10 -10 -3 -10 6 0 15 5 18 10 8 12 4 12 -15 0z"/>
<path d="M210 159 c0 -50 18 -60 22 -12 2 26 8 38 18 38 10 0 16 -12 18 -38 2
-20 6 -35 10 -33 4 2 6 23 4 45 -4 39 -5 40 -38 39 -32 -1 -34 -3 -34 -39z"/>
<path d="M330 159 c17 -32 19 -44 9 -55 -6 -8 -9 -17 -5 -21 8 -8 9 -7 39 60
14 31 22 57 16 57 -5 0 -15 -15 -22 -32 l-13 -33 -12 33 c-6 17 -16 32 -22 32
-6 0 -1 -18 10 -41z"/>
<path d="M620 155 c0 -27 3 -45 7 -41 7 7 5 77 -3 85 -2 2 -4 -17 -4 -44z"/>
<path d="M673 159 c3 -49 17 -63 17 -17 0 22 6 38 14 41 20 8 26 -2 26 -40 0
-20 4 -32 10 -28 12 7 13 55 2 72 -4 6 -22 11 -39 11 -30 -1 -31 -3 -30 -39z"/>
<path d="M790 180 c-16 -30 -3 -60 26 -60 13 0 24 -4 24 -10 0 -5 -12 -10 -26
-10 -14 0 -23 -4 -19 -10 9 -15 31 -12 49 6 10 9 16 33 16 60 0 42 -1 44 -30
44 -19 0 -33 -7 -40 -20z m50 -20 c0 -32 -26 -43 -36 -15 -9 21 3 45 21 45 10
0 15 -10 15 -30z"/>
<path d="M970 161 c0 -22 5 -43 10 -46 6 -4 10 12 10 39 0 25 -4 46 -10 46 -5
0 -10 -18 -10 -39z"/>
<path d="M1034 185 c-8 -20 4 -35 27 -35 10 0 19 -5 19 -11 0 -7 -10 -9 -25
-6 -16 3 -24 0 -22 -7 2 -6 15 -11 28 -11 36 0 39 40 4 49 -14 4 -23 11 -20
17 4 5 15 7 26 4 11 -4 19 -2 19 4 0 17 -50 13 -56 -4z"/>
<path d="M1200 140 c0 -33 4 -60 10 -60 6 0 10 9 10 20 0 12 5 17 14 14 15 -6
46 21 46 41 0 32 -13 45 -46 45 l-34 0 0 -60z m55 19 c0 -15 -7 -25 -17 -27
-13 -3 -18 3 -18 21 0 13 3 27 7 31 13 12 28 -1 28 -25z"/>
<path d="M1322 188 c-16 -16 -15 -53 3 -68 20 -17 54 -3 61 26 11 42 -34 72
-64 42z m43 -29 c0 -15 -7 -25 -17 -27 -13 -3 -18 3 -18 21 0 13 3 27 7 31 13
12 28 -1 28 -25z"/>
<path d="M1424 185 c-8 -20 4 -35 27 -35 10 0 19 -5 19 -11 0 -7 -10 -9 -25
-6 -16 3 -24 0 -22 -7 5 -16 36 -20 52 -6 21 18 18 29 -10 40 -34 13 -33 34 1
26 17 -5 23 -3 19 4 -9 15 -55 12 -61 -5z"/>
<path d="M1524 185 c-8 -20 4 -35 27 -35 10 0 19 -5 19 -11 0 -7 -10 -9 -25
-6 -16 3 -24 0 -22 -7 2 -6 15 -11 28 -11 36 0 39 40 4 49 -14 4 -23 11 -20
17 4 5 15 7 26 4 11 -4 19 -2 19 4 0 17 -50 13 -56 -4z"/>
<path d="M1620 155 c0 -25 5 -45 10 -45 6 0 10 20 10 45 0 25 -4 45 -10 45 -5
0 -10 -20 -10 -45z"/>
<path d="M1850 185 c-18 -22 -4 -64 25 -71 24 -6 45 1 45 14 0 5 -12 8 -27 7
-14 0 -28 5 -30 11 -2 7 8 9 27 6 30 -4 35 3 24 32 -8 20 -48 21 -64 1z m45
-5 c3 -5 -3 -10 -15 -10 -12 0 -18 5 -15 10 3 6 10 10 15 10 5 0 12 -4 15 -10z"/>
<path d="M229 93 c-13 -16 -12 -17 4 -4 16 13 21 21 13 21 -2 0 -10 -8 -17
-17z"/>
<path d="M1843 95 c0 -8 4 -12 9 -9 5 3 6 10 3 15 -9 13 -12 11 -12 -6z"/>
<path d="M100 90 c0 -5 5 -10 11 -10 5 0 7 5 4 10 -3 6 -8 10 -11 10 -2 0 -4
-4 -4 -10z"/>
<path d="M1475 90 c-2 -3 7 -7 20 -8 13 -1 26 2 29 6 2 4 -7 7 -21 7 -14 0
-26 -2 -28 -5z"/>
<path d="M1587 89 c7 -7 15 -10 18 -7 3 3 -2 9 -12 12 -14 6 -15 5 -6 -5z"/>
</g>
</svg>
