<?xml version="1.0" standalone="no"?>
<!DOCTYPE svg PUBLIC "-//W3C//DTD SVG 20010904//EN"
 "http://www.w3.org/TR/2001/REC-SVG-20010904/DTD/svg10.dtd">
<svg version="1.0" xmlns="http://www.w3.org/2000/svg"
 width="48.000000pt" height="48.000000pt" viewBox="0 0 48.000000 48.000000"
 preserveAspectRatio="xMidYMid meet">
<metadata>
Created by potrace 1.15, written by Peter Selinger 2001-2017
</metadata>
<g transform="translate(0.000000,48.000000) scale(0.100000,-0.100000)"
fill="#000000" stroke="none">
<path d="M201 441 c-8 -5 -11 -16 -7 -28 7 -22 -13 -45 -35 -41 -15 3 -15 0
-3 -46 4 -19 3 -27 -3 -23 -7 4 -10 -3 -9 -18 1 -17 6 -23 20 -22 13 1 22 -6
26 -23 5 -20 7 -22 12 -8 11 27 -3 90 -18 84 -7 -3 -15 2 -18 10 -3 8 1 15 9
15 23 2 29 4 41 12 9 5 12 -9 13 -48 0 -30 -4 -57 -9 -60 -6 -4 -10 -15 -10
-26 0 -10 -4 -19 -10 -19 -5 0 -10 -4 -10 -10 0 -23 29 -8 32 17 2 14 9 28 15
31 9 2 11 -5 6 -29 -9 -46 15 -34 33 16 7 22 14 41 14 42 0 1 -7 0 -16 -4 -16
-6 -34 11 -34 34 0 21 56 -9 73 -40 19 -32 16 -46 -6 -31 -7 5 -5 2 5 -7 9 -9
15 -19 12 -22 -3 -2 2 -7 11 -11 25 -9 30 23 6 48 -25 26 -26 36 -6 36 16 0
21 35 6 44 -5 4 -7 -3 -4 -14 7 -25 -3 -25 -54 0 -48 23 -66 72 -36 97 16 13
16 13 -4 3 -13 -6 -23 -15 -23 -21 0 -6 -5 -7 -11 -3 -7 4 -7 10 -1 16 6 6 8
16 6 23 -3 8 7 17 23 23 28 10 28 10 3 11 -14 0 -31 -3 -39 -8z"/>
</g>
</svg>
